Coordinates
version=1
nRows=29
nColumns=22
inDegrees=yes

Units are S.I. units (second, meters, Newtons, ...)
If the header above contains a line with 'inDegrees', this indicates whether rotational values are in degrees (yes) or radians (no).

endheader
time	pelvis_tilt	pelvis_list	pelvis_rotation	pelvis_tx	pelvis_ty	pelvis_tz	hip_flexion_r	hip_adduction_r	hip_rotation_r	knee_angle_r	ankle_angle_r	subtalar_angle_r	hip_flexion_l	hip_adduction_l	hip_rotation_l	knee_angle_l	ankle_angle_l	subtalar_angle_l	lumbar_extension	lumbar_bending	lumbar_rotation
      4.21000000	     -2.07148291	      3.73265849	    167.37747883	      0.21982461	      0.99954877	     -0.49981844	     15.14699648	     -3.59088673	      1.75355005	    -51.12214896	      8.79967667	      4.30046331	      7.86794630	      6.60787209	    -10.54971344	    -21.08810849	     13.41399653	    -13.37173127	    -14.79344414	      0.97279641	     -0.44305728
      4.22000000	     -1.93601411	      3.60336135	    168.43088402	      0.21502147	      0.99947057	     -0.49858197	     15.68434483	     -3.63598405	      2.51625045	    -49.49221168	      9.28759531	      3.69791511	      7.56810895	      6.90294906	     -9.63030994	    -20.75466629	     13.40938241	    -13.31893863	    -14.65724462	      0.97449199	     -0.69124858
      4.23000000	     -1.78721108	      3.50266064	    169.47025405	      0.21027757	      0.99937360	     -0.49741225	     16.20651055	     -3.60826077	      3.35132639	    -47.81154711	      9.74183688	      3.09722013	      7.28467434	      7.14530606	     -8.74378434	    -20.44897427	     13.43970964	    -13.27137681	    -14.51768759	      0.98834049	     -0.90306259
      4.24000000	     -1.62760105	      3.41925890	    170.50723622	      0.20560601	      0.99925026	     -0.49627743	     16.72651593	     -3.52517094	      4.26176351	    -46.11636084	     10.16613240	      2.75102059	      7.02216230	      7.35304543	     -7.85948474	    -20.17479003	     13.49463466	    -13.21157904	    -14.37545700	      1.00628635	     -1.09942172
      4.25000000	     -1.45903492	      3.36532711	    171.54047613	      0.20101689	      0.99913347	     -0.49516580	     17.23639265	     -3.37788168	      5.22863346	    -44.40049938	     10.45386643	      2.39773266	      6.77253384	      7.51854669	     -6.95698803	    -19.91984767	     13.54071729	    -13.14910201	    -14.23686820	      1.04394958	     -1.26539063
      4.26000000	     -1.29073302	      3.33382742	    172.55783990	      0.19650155	      0.99902543	     -0.49414439	     17.73597053	     -3.16822413	      6.27161756	    -42.69203037	     10.66626683	      2.16605896	      6.52855164	      7.64217108	     -6.07579158	    -19.68451878	     13.59168892	    -13.08256817	    -14.10484407	      1.07687240	     -1.38998472
      4.27000000	     -1.12527672	      3.31997096	    173.56622516	      0.19205157	      0.99892080	     -0.49314275	     18.22439209	     -2.91576694	      7.36644699	    -41.00125434	     10.80644735	      2.07218711	      6.28756356	      7.73780894	     -5.19277799	    -19.46593987	     13.64518001	    -13.01106019	    -13.98249520	      1.11671809	     -1.48876890
      4.28000000	     -0.96842878	      3.32198042	    174.57475787	      0.18764656	      0.99882532	     -0.49215236	     18.69627594	     -2.63197355	      8.48286429	    -39.34039027	     10.87245937	      2.09762332	      6.04248162	      7.80852875	     -4.30187912	    -19.26201354	     13.69861834	    -12.93562649	    -13.87232950	      1.15972145	     -1.57058014
      4.29000000	     -0.82550362	      3.33725075	    175.58435730	      0.18327090	      0.99874173	     -0.49114884	     19.14996819	     -2.32888973	      9.59384724	    -37.72211116	     10.86146646	      2.24243877	      5.78612873	      7.85978661	     -3.39901258	    -19.06922639	     13.75410806	    -12.85805733	    -13.77966909	      1.20773150	     -1.63740560
      4.30000000	     -0.70174312	      3.36188669	    176.59550455	      0.17890309	      0.99867566	     -0.49013632	     19.58352693	     -2.01735738	     10.66665036	    -36.15762732	     10.78646822	      2.51198430	      5.51005345	      7.89468101	     -2.48973670	    -18.88204209	     13.80796892	    -12.77968889	    -13.70814723	      1.25464912	     -1.69358429
      4.31000000	     -0.59788577	      3.39138463	    177.60475040	      0.17452844	      0.99862343	     -0.48909853	     20.00157106	     -1.70642983	     11.67505758	    -34.65730794	     10.64280999	      2.86541863	      5.21105190	      7.91887273	     -1.57678759	    -18.69566139	     13.86062098	    -12.70366218	    -13.65825732	      1.29956216	     -1.73687292
      4.32000000	     -0.51877313	      3.42389521	    178.60502137	      0.17010752	      0.99859176	     -0.48802957	     20.39858220	     -1.40253545	     12.58847485	    -33.22350077	     10.48094907	      3.32616878	      4.87426566	      7.93303446	     -0.67568018	    -18.49371238	     13.91091619	    -12.62872284	    -13.63207134	      1.34280300	     -1.76133383
      4.33000000	     -0.44778357	      3.45092860	    179.60941712	      0.16570257	      0.99854693	     -0.48691579	     20.80781119	     -1.11714980	     13.36203083	    -31.87229179	     10.16072947	      3.69659541	      4.54063659	      7.94666754	      0.23353530	    -18.31516808	     13.96567961	    -12.55599236	    -13.62194771	      1.37681175	     -1.78766742
      4.34000000	     -0.41431558	      3.48197756	    180.60009571	      0.16121009	      0.99854506	     -0.48574704	     21.17843925	     -0.84306297	     13.98363541	    -30.57799071	      9.87784693	      4.20422474	      4.13931821	      7.94874616	      1.12743584	    -18.09367448	     14.02399483	    -12.47949333	    -13.64513458	      1.41945001	     -1.79706633
      4.35000000	     -0.38823437	      3.50455966	    181.58104242	      0.15670220	      0.99852938	     -0.48453273	     21.55968215	     -0.58955174	     14.42489655	    -29.35416362	      9.48733211	      4.64274566	      3.73232932	      7.95056804	      2.00045593	    -17.87885621	     14.08378348	    -12.40348423	    -13.67967261	      1.45365031	     -1.80598022
      4.36000000	     -0.38895289	      3.51883732	    182.54303408	      0.15215260	      0.99853375	     -0.48328434	     21.92354311	     -0.35339577	     14.67785436	    -28.18641777	      9.07140292	      5.12475537	      3.28661696	      7.95046030	      2.84850599	    -17.65130852	     14.14242038	    -12.32803286	    -13.74455864	      1.47816195	     -1.79685582
      4.37000000	     -0.40817557	      3.52399547	    183.48652567	      0.14756324	      0.99854638	     -0.48198102	     22.27459817	     -0.13692341	     14.72496971	    -27.06154506	      8.64095837	      5.65087828	      2.81256693	      7.94958604	      3.66129730	    -17.41228255	     14.19612510	    -12.25705064	    -13.83141401	      1.49767064	     -1.77895786
      4.38000000	     -0.42897930	      3.52599527	    184.42712837	      0.14294802	      0.99853407	     -0.48059839	     22.62099583	      0.06047143	     14.55520935	    -25.96099848	      8.23029598	      6.16128738	      2.33849093	      7.94310546	      4.44740740	    -17.18156222	     14.24649621	    -12.19078270	    -13.91889719	      1.52364526	     -1.78222607
      4.39000000	     -0.48316839	      3.50782656	    185.31548972	      0.13824250	      0.99856299	     -0.47922792	     22.93200116	      0.24719045	     14.22077130	    -24.89021188	      7.85721428	      6.85423401	      1.79635610	      7.94100651	      5.17308811	    -16.89937212	     14.29048252	    -12.13878529	    -14.03849870	      1.52098771	     -1.73562955
      4.40000000	     -0.53678209	      3.48375936	    186.19799044	      0.13352300	      0.99856255	     -0.47778591	     23.22864180	      0.41948802	     13.71006256	    -23.82421678	      7.52840636	      7.55574528	      1.26693324	      7.93773066	      5.87957101	    -16.64648563	     14.31995462	    -12.09480021	    -14.16036831	      1.52098641	     -1.69038074
      4.41000000	     -0.59235663	      3.45029929	    187.05882238	      0.12874224	      0.99854027	     -0.47630773	     23.50620080	      0.58429688	     13.05547722	    -22.76739877	      7.24967921	      8.28064290	      0.72972984	      7.93291062	      6.54777694	    -16.39112408	     14.34306227	    -12.05847501	    -14.27966133	      1.51226610	     -1.64077510
      4.42000000	     -0.64615408	      3.40593236	    187.90609642	      0.12390584	      0.99849020	     -0.47478288	     23.75922143	      0.74208201	     12.30342171	    -21.71101580	      7.02941930	      9.00220948	      0.19390197	      7.92977211	      7.19063074	    -16.14383515	     14.36291012	    -12.02532906	    -14.39428623	      1.49577758	     -1.60281478
      4.43000000	     -0.69286276	      3.35181670	    188.73771774	      0.11901243	      0.99839913	     -0.47323009	     23.99120754	      0.89936307	     11.49116042	    -20.65726274	      6.87087643	      9.69220770	     -0.32839781	      7.92765452	      7.81188942	    -15.91828316	     14.37944128	    -11.99119095	    -14.49767006	      1.46702112	     -1.56462934
      4.44000000	     -0.73272895	      3.28624080	    189.55530283	      0.11406681	      0.99827948	     -0.47165497	     24.18623276	      1.06036868	     10.70831538	    -19.58590576	      6.74539257	     10.38965599	     -0.83382551	      7.92956336	      8.42552056	    -15.72281210	     14.38838403	    -11.95669513	    -14.59246817	      1.42167539	     -1.52505646
      4.45000000	     -0.75447459	      3.21605980	    190.37184018	      0.10903734	      0.99809419	     -0.47002172	     24.36451524	      1.22322218	      9.92878658	    -18.52052941	      6.70207397	     10.98123903	     -1.31698540	      7.92938425	      9.03731263	    -15.54632807	     14.41097174	    -11.90896309	    -14.65749415	      1.37189487	     -1.51361564
      4.46000000	     -0.76381294	      3.13655767	    191.18518012	      0.10395349	      0.99786404	     -0.46833749	     24.50702299	      1.38802954	      9.24291432	    -17.44078031	      6.67777553	     11.53890705	     -1.77466959	      7.93404257	      9.65318083	    -15.40757040	     14.43970486	    -11.85297308	    -14.70802687	      1.31109585	     -1.51854130
      4.47000000	     -0.73315230	      3.04500217	    191.99879096	      0.09881732	      0.99753459	     -0.46659721	     24.65818631	      1.54279840	      8.63302087	    -16.37802847	      6.61336155	     11.93091385	     -2.17108616	      7.95343248	     10.26542614	    -15.32101704	     14.48571946	    -11.78494525	    -14.70945561	      1.22650610	     -1.55152659
      4.48000000	     -0.74808354	      2.94859242	    192.79381534	      0.09355294	      0.99725287	     -0.46478408	     24.70474403	      1.71751442	      8.20114053	    -15.31176183	      6.65427930	     12.47569965	     -2.62785328	      7.95986059	     10.86538927	    -15.23101569	     14.52390140	    -11.69646250	    -14.75743395	      1.15202963	     -1.56455537
      4.49000000	     -0.73252373	      2.84034779	    193.57808682	      0.08820564	      0.99688751	     -0.46290362	     24.75941725	      1.88395050	      7.88336507	    -14.29784573	      6.62641112	     12.88140630	     -3.04239594	      7.98230087	     11.45654630	    -15.18172625	     14.57430458	    -11.58940317	    -14.76485317	      1.05458317	     -1.57931589
